<?xml version="1.0" encoding="UTF-8" standalone="no"?>
<!-- Created with Inkscape (http://www.inkscape.org/) -->
<svg
   xmlns:svg="http://www.w3.org/2000/svg"
   xmlns="http://www.w3.org/2000/svg"
   version="1.0"
   width="602.36218"
   height="93.330704"
   id="svg4785">
  <defs
     id="defs4787" />
  <g
     id="layer1">
    <path
       d="M 515.95811,17.720881 C 510.04936,17.720881 504.3397,18.197438 500.3722,18.697434 L 500.3722,74.517682 L 510.52843,74.517682 L 510.52843,51.392715 L 515.72374,51.392715 C 516.96876,51.392695 518.21155,51.411775 519.2003,51.900521 C 522.6303,52.925522 524.37279,55.399894 525.60655,61.197383 C 527.09529,68.228637 528.63529,73.003934 529.35654,74.517682 L 539.74715,74.517682 C 538.74589,72.258945 537.24809,65.97832 535.48934,58.970824 C 534.01183,53.428338 531.79747,49.365841 527.59873,47.877093 L 527.59873,47.642719 C 533.03121,45.897728 537.79403,40.873977 537.79403,33.58023 C 537.79403,28.789003 535.99466,24.739306 533.02841,22.213056 C 529.83968,19.448073 525.38904,17.958374 519.2003,17.720881 C 518.21156,17.720881 516.97187,17.720881 515.95811,17.720881 z M 569.08305,17.720881 C 556.96182,17.720881 549.27839,24.740246 549.27839,33.736486 C 549.27838,41.970227 555.22525,46.946779 564.3565,50.181779 C 571.54649,52.66551 574.27835,55.16427 574.27835,59.400513 C 574.27837,63.893008 570.57962,67.134878 564.12212,67.134878 C 558.93463,67.134868 554.01307,65.388946 550.80183,63.423951 L 548.57527,71.861436 C 551.5415,73.863951 557.72087,75.611432 563.65337,75.611432 C 577.99712,75.611422 584.62991,67.642063 584.62991,58.658323 C 584.6299,50.680825 579.98928,45.726153 570.33305,41.978657 C 562.93557,39.201164 559.669,37.208979 559.669,32.955237 C 559.669,29.476484 562.38962,25.963052 568.80961,25.963052 C 573.99712,25.963052 578.00398,27.739932 579.98147,28.697426 L 582.44241,20.494314 C 579.45115,19.035564 575.02804,17.720881 569.08305,17.720881 z M 365.37236,17.798999 C 349.91863,18.019003 339.27864,30.088677 339.27864,47.134903 C 339.27864,63.44363 349.28145,75.494245 364.94267,75.494245 L 365.13798,75.494245 C 365.13798,75.494235 365.13986,75.494245 365.37236,75.494245 C 380.60735,75.261732 391.73952,64.581129 391.73952,46.197409 C 391.73953,30.077427 382.17203,17.798999 365.80205,17.798999 C 365.58204,17.798999 365.60361,17.798999 365.37236,17.798999 z M 465.0988,17.798999 C 449.62006,18.019003 438.96602,30.088677 438.96602,47.134903 C 438.96603,63.44363 448.94383,75.494245 464.63005,75.494245 L 464.82536,75.494245 C 464.82536,75.494235 464.81755,75.494245 465.0988,75.494245 C 480.28378,75.261732 491.38784,64.581129 491.38784,46.197409 C 491.38784,30.077427 481.88878,17.798999 465.56755,17.798999 C 465.29881,17.798999 465.2813,17.798999 465.0988,17.798999 z M 17.716525,18.541188 L 17.716525,34.947422 L 33.654006,34.947422 L 33.654006,74.634869 L 56.271166,74.634869 L 56.271166,34.947422 L 71.739897,34.947422 L 71.739897,18.541188 L 17.716525,18.541188 z M 87.482065,18.541188 L 66.075841,74.634869 L 87.716441,74.634869 L 99.122677,41.314595 L 110.76329,74.634869 L 132.63827,74.634869 L 110.99767,18.541188 L 87.482065,18.541188 z M 127.63828,18.541188 L 127.63828,34.947422 L 143.61481,34.947422 L 143.61481,74.634869 L 166.19291,74.634869 L 166.19291,34.947422 L 181.7007,34.947422 L 181.7007,18.541188 L 127.63828,18.541188 z M 197.2085,18.541188 L 175.99759,74.634869 L 197.63819,74.634869 L 209.04442,41.314595 L 220.68504,74.634869 L 242.59907,74.634869 L 220.91941,18.541188 L 197.2085,18.541188 z M 273.73185,18.541188 L 270.25529,74.634869 L 279.82559,74.634869 L 280.99746,52.252081 C 281.28497,44.36584 281.58185,35.356481 281.85684,28.111492 L 282.13027,28.111492 C 283.58277,35.076478 285.63183,42.919601 287.95058,49.908336 L 295.2162,74.048935 L 303.06775,74.048935 L 311.50524,49.634904 C 313.82523,42.658658 316.13369,35.075229 318.18492,28.111492 C 318.18492,35.667732 318.73929,44.37866 319.04429,51.666147 L 319.94273,74.634869 L 330.13803,74.634869 L 326.93491,18.541188 L 313.53649,18.541188 L 305.68493,40.884907 C 303.65868,47.579901 301.64212,54.534278 300.17713,60.650508 L 299.86463,60.650508 C 298.43588,54.266775 296.68932,47.5999 294.66932,41.197408 L 287.36465,18.541188 L 273.73185,18.541188 z M 394.43482,18.697434 L 394.43482,27.330244 L 410.56762,27.330244 L 410.56762,74.556741 L 420.76292,74.556741 L 420.76292,27.330244 L 436.66134,27.330244 L 436.66134,18.697434 L 394.43482,18.697434 z M 516.97374,25.533364 C 517.70622,25.533364 518.45655,25.533364 519.2003,25.533364 C 524.38779,26.253384 527.59873,29.017117 527.59873,34.595852 C 527.59871,39.33209 524.38904,42.868032 519.2003,43.619281 C 518.21155,43.619271 517.45592,43.853655 516.46593,43.853655 L 510.52843,43.853655 L 510.52843,26.04118 C 511.5047,25.778677 513.77624,25.533364 516.97374,25.533364 z M 365.37236,25.963052 C 375.60236,25.963042 380.80203,35.983043 380.80203,46.431783 C 380.80203,58.224265 375.36985,67.291133 365.37236,67.291133 C 355.61862,67.291113 349.90363,57.982702 349.90363,46.861471 C 349.90363,35.74648 355.15487,25.963052 365.37236,25.963052 z M 465.0988,25.963052 C 475.29129,25.963042 480.48941,35.983043 480.48941,46.431783 C 480.48942,58.224265 475.06004,67.291133 465.0988,67.291133 C 455.2963,67.291113 449.63007,57.982702 449.63007,46.861471 C 449.63006,35.74648 454.85631,25.963052 465.0988,25.963052 z "
       style="fill:#5982c4;fill-opacity:1"
       id="polyline4750" />
  </g>
</svg>
